<?xml version="1.0" encoding="UTF-8" standalone="no"?>
<!-- Created with Inkscape (http://www.inkscape.org/) -->

<svg
   version="1.1"
   id="svg2"
   width="1000"
   height="666.66669"
   viewBox="0 0 1000 666.66669"
   sodipodi:docname="7482677.ai"
   xmlns:inkscape="http://www.inkscape.org/namespaces/inkscape"
   xmlns:sodipodi="http://sodipodi.sourceforge.net/DTD/sodipodi-0.dtd"
   xmlns="http://www.w3.org/2000/svg"
   xmlns:svg="http://www.w3.org/2000/svg">
  <defs
     id="defs6">
    <clipPath
       clipPathUnits="userSpaceOnUse"
       id="clipPath18">
      <path
         d="M 0,500 H 750 V 0 H 0 Z"
         id="path16" />
    </clipPath>
  </defs>
  <sodipodi:namedview
     id="namedview4"
     pagecolor="#ffffff"
     bordercolor="#000000"
     borderopacity="0.25"
     inkscape:showpageshadow="2"
     inkscape:pageopacity="0.0"
     inkscape:pagecheckerboard="0"
     inkscape:deskcolor="#d1d1d1" />
  <g
     id="g8"
     inkscape:groupmode="layer"
     inkscape:label="7482677"
     transform="matrix(1.3333333,0,0,-1.3333333,0,666.66667)">
    <path
       d="M 0,0 H 750 V 500 H 0 Z"
       style="fill:#ffffff;fill-opacity:1;fill-rule:nonzero;stroke:none"
       id="path10" />
    <g
       id="g12">
      <g
         id="g14"
         clip-path="url(#clipPath18)">
        <g
           id="g20"
           transform="translate(258.1182,65.373)">
          <path
             d="m 0,0 c -2.802,8.803 35.159,9.832 41.417,9.832 6.257,0 18.473,20.561 23.241,25.029 4.767,4.47 7.447,9.834 12.514,14.602 5.065,4.766 7.151,6.851 18.623,9.086 -6.555,5.215 -16.687,14.154 -16.687,14.154 0,0 -4.916,12.365 -6.405,14.451 -1.49,2.085 -9.386,4.767 -12.813,6.555 -3.426,1.787 -20.261,1.341 -31.435,5.363 -11.173,4.023 -36.351,16.686 -41.118,16.537 -4.768,-0.149 -14.601,-3.575 -20.411,-3.426 -5.81,0.148 -11.77,2.831 -12.217,7.598 -0.447,4.767 -4.32,15.047 8.045,16.984 12.366,1.936 20.411,-2.682 23.986,-3.279 3.576,-0.595 15.494,-3.576 24.732,-4.618 9.236,-1.042 13.706,-1.34 23.539,-4.171 9.832,-2.831 22.049,-4.172 28.753,-7.301 6.704,-3.128 17.132,-5.662 19.069,-6.406 4.47,0 20.709,-2.086 25.179,-3.129 4.468,-1.042 8.045,-3.872 11.024,-4.17 2.979,-0.298 5.362,-3.128 8.194,-3.725 2.83,-0.597 8.194,-0.895 9.981,-0.597 1.788,0.299 6.407,4.024 8.492,5.067 2.086,1.043 7.151,5.213 9.685,7.895 2.532,2.682 8.938,13.706 10.577,16.537 1.639,2.831 0.446,5.512 -2.086,7.599 -2.533,2.086 -4.023,4.916 -3.725,7.3 -5.363,6.704 -17.133,16.09 -21.006,21.155 -3.873,5.064 -13.259,21.751 -14.898,24.432 -1.639,2.682 -5.735,2.46 -7.896,1.044 -2.161,-1.416 -6.332,-1.936 -7.822,-1.565 -1.49,0.373 -9.311,-0.894 -11.247,0.521 -1.937,1.416 4.469,4.172 4.469,4.172 0,0 -1.639,4.246 1.191,6.928 2.831,2.682 10.281,4.023 15.42,2.682 5.14,-1.341 13.334,-8.12 17.505,-11.472 4.172,-3.352 14.452,-9.981 20.262,-16.909 5.81,-6.928 14.452,-15.867 16.388,-17.282 1.937,-1.415 13.259,-3.278 16.685,-5.215 -0.596,5.437 0.224,8.566 0.224,8.566 0,0 -2.384,3.502 -1.341,6.78 1.044,3.277 7.673,10.205 16.537,10.056 8.865,-0.149 17.283,1.266 22.125,-5.066 5.811,-2.085 8.043,-7.076 7.746,-11.323 -0.298,-4.246 -1.267,-14.226 -5.363,-21.154 -4.098,-6.928 -4.693,-13.633 -4.171,-17.134 4.394,-3.128 6.034,-7.747 6.034,-7.747 l 0.372,-5.288 c 0,0 6.853,-8.194 8.788,-11.323 1.939,-3.129 3.28,-7.299 4.769,-10.131 1.489,-2.83 3.278,-9.982 4.469,-14.599 1.192,-4.619 4.917,-15.942 6.704,-20.411 1.788,-4.469 17.132,-24.433 20.858,-31.882 3.724,-7.45 15.941,-30.541 19.367,-30.988 3.427,-0.447 19.294,-1.751 25.104,-3.538 5.81,-1.788 11.844,-6.48 11.397,-7.821 -0.447,-1.341 -3.911,1.228 -3.911,1.228 0,0 1.006,-2.533 0.335,-2.979 -0.67,-0.447 -7.821,4.543 -9.014,4.543 3.502,-2.458 2.981,-6.033 2.086,-6.481 -0.893,-0.447 -3.872,5.438 -7.821,5.811 -0.224,-1.639 -3.128,-1.489 -4.617,-1.043 -1.491,0.447 -6.258,-0.074 -9.163,-1.341 -2.905,-1.266 -7.301,-1.044 -10.43,1.489 -3.128,2.534 -17.952,20.561 -21.825,24.583 -3.874,4.023 -13.26,12.514 -16.984,19.517 -3.725,7.002 -14.302,22.497 -17.877,31.584 -1.341,0.148 -3.279,0.745 -3.279,0.745 0,0 -4.766,12.513 -8.64,12.365 -3.874,-0.148 -8.045,-2.383 -10.727,-4.32 -2.682,-1.936 -9.536,-7.3 -14.749,-9.535 -5.215,-2.235 -12.962,-10.13 -16.984,-13.11 -4.023,-2.98 -5.662,-6.854 -13.557,-8.79 -7.896,-1.937 -23.986,-6.705 -23.986,-6.705 l -3.576,6.705 c 0,0 -6.853,-3.277 -12.961,-4.32 -6.108,-1.044 -19.814,-2.533 -19.814,-2.533 l -1.192,1.788 c 0,0 -8.344,1.043 -10.727,-0.447 C 91.027,26.52 88.494,20.411 78.96,14.601 69.425,8.791 58.698,2.086 55.719,0.149 52.739,-1.788 43.948,-7.746 31.732,-8.343 19.517,-8.939 3.129,-9.833 0,0"
             style="fill:#1c1c1c;fill-opacity:1;fill-rule:nonzero;stroke:none"
             id="path22" />
        </g>
        <g
           id="g24"
           transform="translate(316.2207,234.7646)">
          <path
             d="m 0,0 c 0,-12.918 -10.472,-23.39 -23.39,-23.39 -12.918,0 -23.389,10.472 -23.389,23.39 0,12.917 10.471,23.389 23.389,23.389 C -10.472,23.389 0,12.917 0,0"
             style="fill:#1c1c1c;fill-opacity:1;fill-rule:nonzero;stroke:none"
             id="path26" />
        </g>
        <g
           id="g28"
           transform="translate(188.6738,312.9326)">
          <path
             d="m 0,0 c 0,0 1.624,-3.899 2.924,-8.123 -1.949,-1.625 -6.498,-5.848 -6.498,-5.848 z m 16.028,-258.944 c -4.765,5.199 -15.595,13.213 -17.544,21.227 -1.949,8.014 0,24.908 1.083,38.555 1.082,13.645 0.65,28.807 -2.383,38.337 -3.032,9.531 -2.599,22.094 -1.949,29.675 0.649,7.581 1.949,37.688 1.082,55.449 -0.866,17.76 -4.765,29.889 -4.548,32.922 0.217,3.033 1.083,9.315 1.083,9.315 0,0 14.295,6.279 19.927,10.396 5.632,4.115 7.148,10.397 5.199,21.66 -1.95,11.262 -3.249,21.443 -3.249,21.443 0,0 1.732,-0.542 0.541,5.09 -1.191,5.631 -6.607,31.407 -13.646,35.197 -7.039,3.791 -15.919,2.058 -21.984,6.173 -6.065,4.115 -8.556,10.831 -7.907,18.844 4.549,6.606 6.716,7.798 7.257,14.837 0.541,7.039 0.758,15.27 -7.689,21.984 -8.447,6.716 -13.321,4.875 -16.678,4.442 -3.357,-0.434 -8.015,-0.434 -11.156,-1.3 -3.14,-0.867 -9.963,-5.091 -11.371,-9.639 -1.408,-4.549 0.542,-8.339 3.466,-10.397 -1.3,-6.497 -0.975,-11.046 -0.108,-13.428 0.866,-2.384 -1.3,-6.932 -0.325,-8.016 0.975,-1.082 2.815,-0.486 2.815,-0.486 0,0 -0.406,-3.736 0,-4.305 0.407,-0.568 0.081,-3.655 1.056,-3.98 0.975,-0.325 1.706,-4.548 1.869,-6.01 0.162,-1.463 0.812,-4.63 4.304,-4.062 3.493,0.568 5.604,1.869 5.848,0.65 0.245,-1.218 0.407,-8.528 0.407,-8.528 0,0 -6.336,-2.356 -5.443,-5.118 -7.716,-5.361 -16.813,-11.157 -16.813,-15.489 0,-4.331 -1.733,-31.623 -2.166,-40.937 -0.433,-9.313 0.433,-14.945 -2.816,-16.895 -3.249,-1.949 -16.028,-13.212 -20.36,-15.377 -4.332,-2.166 -21.66,-10.831 -21.66,-10.831 0,0 -7.148,0.651 -10.505,-0.323 -3.357,-0.974 -8.339,-2.923 -11.913,-2.49 -3.574,0.433 -3.898,-3.142 -0.866,-3.683 3.032,-0.541 5.523,-0.866 5.523,-0.866 0,0 -7.04,-4.115 -6.282,-5.523 0.759,-1.408 10e-4,-2.925 1.734,-4.332 1.732,-1.407 4.115,-1.733 4.115,-1.733 0,0 -6.715,-7.473 -5.632,-12.888 1.083,-5.415 -0.65,-11.263 -0.217,-13.213 0.434,-1.949 2.383,-11.912 2.817,-16.894 0.433,-4.982 5.415,-21.659 11.263,-37.905 5.848,-16.245 7.364,-35.739 7.364,-35.739 l -1.733,-2.165 c 0,0 -1.516,-12.779 -1.733,-17.544 -0.216,-4.765 -8.014,-19.061 -2.382,-22.961 5.631,-3.898 17.76,9.965 18.844,14.513 1.082,4.549 2.383,14.945 6.281,19.062 3.899,4.114 8.231,10.396 6.932,14.078 -1.3,3.682 -6.282,8.88 -11.697,11.696 -1.733,16.895 -4.981,32.924 -4.548,44.403 0.432,11.48 -6.282,26.208 -4.333,29.674 1.95,3.466 17.545,5.63 22.094,6.281 4.548,0.65 25.341,0.65 34.655,6.282 6.282,-10.397 9.964,-13.647 12.78,-25.126 2.815,-11.479 8.014,-16.678 8.014,-16.678 l 5.848,-5.848 c 0,0 0.433,-16.679 3.249,-24.909 2.815,-8.23 5.848,-17.977 5.848,-25.775 0,-7.797 2.816,-32.491 4.765,-43.32 1.95,-10.83 2.383,-21.66 2.166,-27.507 -0.216,-5.848 -0.433,-10.181 3.899,-12.131 4.332,-1.949 7.581,-4.548 10.613,-7.797 3.033,-3.249 10.181,-3.466 12.996,-2.816 7.598,1.755 8.665,7.581 3.899,12.779"
             style="fill:#1c1c1c;fill-opacity:1;fill-rule:nonzero;stroke:none"
             id="path30" />
        </g>
        <g
           id="g32"
           transform="translate(69.436,389.9331)">
          <path
             d="m 0,0 c 0,-13.099 -10.619,-23.717 -23.718,-23.717 -13.098,0 -23.717,10.618 -23.717,23.717 0,13.099 10.619,23.717 23.717,23.717 C -10.619,23.717 0,13.099 0,0"
             style="fill:#1c1c1c;fill-opacity:1;fill-rule:nonzero;stroke:none"
             id="path34" />
        </g>
        <g
           id="g36"
           transform="translate(664.3018,273.252)">
          <path
             d="m 0,0 c -1.5,5.833 -6.666,12.834 -10.833,19 -4.167,6.166 0,12 3,17.667 3,5.667 4.833,17.333 6.167,20.333 3.167,-5 15.166,-22.5 15,-24.333 -0.166,-1.833 -1.5,-7.5 -3.167,-14 C 8.5,12.167 0,0 0,0 m 54.834,-224.337 c 1.333,10.333 -0.333,18.667 -4,22.667 -4,11.333 -8,18.332 -9.334,25.666 -1.333,7.334 -3.999,33.668 -10.666,47.334 -6.667,13.666 -18.667,37 -20.334,42.333 -1.666,5.333 -0.333,2 -0.333,2 l 3.333,1.667 c 0,0 -6.332,37.334 -6.666,48 -0.334,10.666 -3,14.333 -3,14.333 L 3.167,-15.5 c 0,0 5.167,1.334 6.833,4 1.667,2.666 0.334,6.5 1.5,8.5 1.167,2 8.834,9.334 15.167,24.5 C 33,36.666 26.668,45 22.834,51 19,57 14.334,64.833 14.334,64.833 l 2.5,2.167 c 0,0 -6,7.666 -7.334,9.333 C 8.167,78 6.167,81.667 5.5,83.5 4.834,85.333 2.834,89.333 1.667,92.333 0.5,95.333 -6,101.5 -10.5,103.833 c -4.5,2.333 -20.332,9.999 -23.666,11.833 -3.334,1.834 -4.167,3.167 -7.334,7.167 -3.166,4 -4.666,11.333 -4.833,17.5 -0.167,6.167 -0.167,12 -0.167,12 0,0 1.5,6.501 1.667,10.167 0.167,3.666 -1.333,8.167 -4,10 -2.667,1.833 -3.333,3.999 -6.833,3.166 -3.5,-0.833 -8,1.167 -13.334,0.167 -5.333,-1 -9.332,-2.166 -11.666,-5.333 -2.334,-3.167 -7.167,-3.666 -8.667,-7.5 -1.5,-3.834 -4.499,-5.5 -3.833,-9.167 0.666,-3.667 -2.333,-6.333 0.5,-8.5 2.833,-2.167 6.834,-4.667 9.5,-4.667 -0.167,-6 0.667,-6.166 2,-6.666 1.333,-0.5 2.667,-4.666 3,-8 0.333,-3.334 1.5,-5.334 2.666,-5.667 1.167,-0.333 1,-3.667 2.167,-5 1.167,-1.333 3.333,-2.5 3.333,-2.5 0,0 -5.333,-3.999 -12.833,-6.333 -7.5,-2.334 -8.333,-11.001 -8.167,-17.334 0.167,-6.333 -0.166,-33.499 1.334,-35.166 2,-1 3.666,-1 3.666,-1 0,0 1.001,-11.834 0.834,-14.334 C -92,31.166 -95.333,23.334 -99,23 c -3.666,-0.334 -13,-0.166 -14.833,-1.5 -1.833,-1.334 -0.666,-4.834 -0.333,-6.334 0.333,-1.5 0.834,-4.833 1.5,-5.833 0.666,-1 1.833,-4.667 3.333,-5 1.5,-0.333 4.667,-0.166 7.167,1.167 2.5,1.333 8.166,5 9.333,5.333 1.167,0.333 15.334,3.501 19.167,7.167 2.5,-8.5 2.5,-13 2.833,-16 0.333,-3 -1.5,-7.5 0,-10 1.5,-2.5 -0.167,-3.668 -0.167,-6.334 0,-2.666 -2.5,-6.666 -3,-7.166 -0.5,-0.5 -14.5,-18.167 -18.833,-25.167 -4.333,-7 -9.333,-21.333 -9.333,-21.333 0,0 -8,-12.668 -6.667,-18.334 1.333,-5.666 9.333,-12.333 11.667,-15.333 2.333,-3 19.666,-20.337 33,-30.67 13.333,-10.333 20.667,-16.33 24,-18.663 -1.334,-4.166 1.166,-6.5 3.666,-8.333 0.167,-2.833 0.334,-5.5 0.334,-5.5 0,0 -5,-5.001 -1.334,-9.667 3.667,-4.666 10.5,-5.167 13.5,-4.5 3,0.667 6.5,4.001 8.167,5.334 1.667,1.333 9.001,1.333 12.167,3.833 3.166,2.5 6.5,8.999 3.166,12.333 -3.333,3.334 -7.333,4.667 -7.333,4.667 0,0 -12.5,10.499 -13.167,5.333 -10.333,9.334 -39.833,47.501 -56.5,57.334 1.334,3 0.834,5 0.834,5 l 11,-2.834 c 0,0 21.5,15.501 25.5,21.834 6.833,-11.167 9.5,-16.167 9.5,-16.167 0,0 11,-1.001 14.333,-0.667 4.167,-10.333 5.5,-17.833 6.5,-20.833 1,-3 9.667,-12.333 12,-17.833 2.333,-5.5 6.167,-19.834 10.167,-27.667 4,-7.833 12.666,-23.167 14.666,-33 2,-9.833 4.334,-16.499 2,-20.833 -2.333,-4.334 -9.333,-6.334 -8,-13.167 1.334,-6.833 9.168,-6.667 12.334,-8.5 3.166,-1.833 6.5,-7.508 13.5,-7.504 8.333,0.005 9.667,2.667 8,8"
             style="fill:#1c1c1c;fill-opacity:1;fill-rule:nonzero;stroke:none"
             id="path38" />
        </g>
        <g
           id="g40"
           transform="translate(601.8027,89.9189)">
          <path
             d="m 0,0 c 0,-12.335 -9.999,-22.334 -22.333,-22.334 -12.335,0 -22.334,9.999 -22.334,22.334 0,12.334 9.999,22.333 22.334,22.333 C -9.999,22.333 0,12.334 0,0"
             style="fill:#1c1c1c;fill-opacity:1;fill-rule:nonzero;stroke:none"
             id="path42" />
        </g>
      </g>
    </g>
  </g>
</svg>
